# AST/ASF file generated using VICON BodyLanguage
# -----------------------------------------------
:version 1.10
:name VICON
:units
  mass 1.0
  length 0.45
  angle deg
:documentation
   .ast/.asf automatically generated from VICON data using
   VICON BodyBuilder and BodyLanguage model FoxedUp or BRILLIANT.MOD
:root
   order TX TY TZ RX RY RZ
   axis XYZ
   position 0 0 0  
   orientation 0 0 0 
:bonedata
  begin
     id 1 
     name lhipjoint
     direction 0.547975 -0.797114 0.253638 
     length 2.36201 
     axis 0 0 0  XYZ
  end
  begin
     id 2 
     name lfemur
     direction 0.34202 -0.939693 0  
     length 7.69075  
     axis 0 0 20  XYZ
    dof rx ry rz
    limits (-160.0 20.0)
           (-70.0 70.0)
           (-60.0 70.0)
  end
  begin
     id 3 
     name ltibia
     direction 0.34202 -0.939693 0   
     length 7.91399   
     axis 0 0 20   XYZ
    dof rx
    limits (-10.0 170.0)
  end
  begin
     id 4 
     name lfoot
     direction 0.0705293 -0.193778 0.978507   
     length 2.13618   
     axis -90 7.62852e-016 20   XYZ
    dof rx rz
    limits (-45.0 90.0)
           (-70.0 20.0)
  end
  begin
     id 5 
     name ltoes
     direction 1.53592e-011 -4.21925e-011 1   
     length 1.07518   
     axis -90 7.62852e-016 20   XYZ
    dof rx
    limits (-90.0 20.0)
  end
  begin
     id 6 
     name rhipjoint
     direction -0.57 -0.782963 0.249136   
     length 2.4047  
     axis 0 0 0  XYZ 
  end
  begin
     id 7 
     name rfemur
     direction -0.34202 -0.939693 0   
     length 7.51486   
     axis 0 0 -20   XYZ
    dof rx ry rz
    limits (-160.0 20.0)
           (-70.0 70.0)
           (-70.0 60.0)
  end
  begin
     id 8 
     name rtibia
     direction -0.34202 -0.939693 0   
     length 8.08317   
     axis 0 0 -20   XYZ
    dof rx
    limits (-10.0 170.0)
 end
 begin
     id 9 
     name rfoot
     direction -0.104954 -0.281256 0.953876   
     length 2.30343  
     axis -90 -7.62852e-016 -20   XYZ
    dof rx rz
    limits (-45.0 90.0)
           (-20.0 70.0)
  end
  begin
     id 10 
     name rtoes
     direction -1.53556e-011 -4.21922e-011 1   
     length 1.14803   
     axis -90 -7.62852e-016 -20   XYZ
    dof rx
    limits (-90.0 20.0)
  end
  begin
     id 11 
     name lowerback
     direction -0.0152855 0.99353 -0.11254   
     length 2.05311   
     axis 0 0 0   XYZ
    dof rx ry rz
    limits (-20.0 45.0)
           (-30.0 30.0)
           (-30.0 30.0)
  end
  begin
     id 12 
     name upperback
     direction -0.00157509 0.999443 -0.033332   
     length 2.06353   
     axis 0 0 0   XYZ
    dof rx ry rz
    limits (-20.0 45.0)
           (-30.0 30.0)
           (-30.0 30.0)
  end
  begin
     id 13 
     name thorax
     direction 0.00577788 0.999804 0.0189484   
     length 2.08472   
     axis 0 0 0   XYZ
    dof rx ry rz
    limits (-20.0 45.0)
           (-30.0 30.0)
           (-30.0 30.0)
  end
  begin
     id 14 
     name lowerneck
     direction -1.09301e-005 0.994719 0.10264   
     length 1.76249   
     axis 0 0 0   XYZ
    dof rx ry rz
    limits (-20.0 45.0)
           (-30.0 30.0)
           (-30.0 30.0)
  end
  begin
     id 15 
     name upperneck
     direction 0.0495018 0.988526 -0.142706   
     length 1.77897   
     axis 0 0 0   XYZ
    dof rx ry rz
    limits (-20.0 45.0)
           (-30.0 30.0)
           (-30.0 30.0)
  end
  begin
     id 16
     name head
     direction 0.0142736 0.998114 -0.0597101  
     length 1.78934  
     axis 0 0 0   XYZ
    dof rx ry rz
    limits (-20.0 45.0)
           (-30.0 30.0)
           (-30.0 30.0)
  end
  begin
     id 17 
     name lclavicle
     direction 0.918111 0.396107 -0.0130883  
     length 3.37276  
     axis 0 0 0   XYZ
    dof ry rz
    limits (-20.0 10.0)
           (0.0 20.0)
  end
  begin
     id 18 
     name lhumerus
     direction 1 -4.48975e-011 -3.26108e-027   
     length 5.34298   
     axis 180 -30 -90   XYZ
    dof rx ry rz
    limits (-60.0 90.0)
           (-90.0 90.0)
           (-90.0 90.0)
  end
  begin
     id 19
     name lradius
     direction 1 -4.48964e-011 -8.84413e-028   
     length 3.67262   
     axis 180 -30 -90   XYZ
    dof rx
    limits (-10.0 170.0)
  end
  begin
     id 20
     name lwrist
     direction 1 -4.48991e-011 -1.24264e-027   
     length 1.83631   
     axis -2.17013e-015 90 90   XYZ
    dof ry
    limits (-180.0 0.0)
 end
  begin
     id 21 
     name lhand
     direction 1 -4.48855e-011 -2.48528e-027   
     length 0.599298   
     axis 1.58582e-015 90 90   XYZ
    dof rx rz
    limits (-90.0 90.0)
           (-45.0 45.0)
  end
  begin
     id 22 
     name lfingers
     direction 1 -4.48811e-011 -4.97056e-027   
     length 0.48317   
     axis 3.17164e-015 90 90   XYZ
    dof rx
    limits (0.0 90.0)
  end
  begin
     id 23
     name lthumb
     direction 0.707107 -6.34882e-011 0.707107   
     length 0.693738   
     axis -90 45 2.85299e-015   XYZ
    dof rx rz
    limits (-45.0 45.0)
           (-45.0 45.0)
  end
  begin
     id 24 
     name rclavicle
     direction -0.920511 0.384752 -0.0680135   
     length 3.43787  
     axis 0 0 0   XYZ 
    dof ry rz
    limits (-10.0 20.0)
           (-20.0 0.0)
  end
  begin
     id 25 
     name rhumerus
     direction -0.999976 -0.00330524 0.00603274  
     length 5.5498   
     axis 180 30 90   XYZ
    dof rx ry rz
    limits (-90.0 60.0)
           (-90.0 90.0)
           (-90.0 90.0)
  end
  begin
     id 26 
     name rradius
     direction -1 -4.48967e-011 8.62438e-027   
     length 3.69401   
     axis 180 30 90   XYZ
    dof rx
    limits (-10.0 170.0)
  end
  begin
     id 27 
     name rwrist
     direction -1 -4.4897e-011 9.54866e-027   
     length 1.84701   
     axis -7.69462e-015 -90 -90   XYZ
    dof ry
    limits (-180.0 0.0)
  end
  begin
     id 28
     name rhand
     direction -1 -4.48982e-011 1.90973e-026   
     length 0.638113   
     axis -1.21857e-014 -90 -90   XYZ
    dof rx rz
    limits (-90.0 90.0)
           (-45.0 45.0)
  end
  begin
     id 29
     name rfingers
     direction -1 -4.48936e-011 3.81946e-026   
     length 0.514463   
     axis -2.43714e-014 -90 -90   XYZ
    dof rx
    limits (0.0 90.0)
  end
  begin
     id 30
     name rthumb
     direction -0.707107 -6.34942e-011 0.707107   
     length 0.738669   
     axis -90 -45 -2.85299e-015   XYZ
    dof rx rz
    limits (-45.0 45.0)
           (-45.0 45.0)
  end
:hierarchy
  begin
    root lhipjoint rhipjoint lowerback
    lhipjoint lfemur
    lfemur ltibia
    ltibia lfoot
    lfoot ltoes
    rhipjoint rfemur
    rfemur rtibia
    rtibia rfoot
    rfoot rtoes
    lowerback upperback
    upperback thorax
    thorax lowerneck lclavicle rclavicle
    lowerneck upperneck
    upperneck head
    lclavicle lhumerus
    lhumerus lradius
    lradius lwrist
    lwrist lhand lthumb
    lhand lfingers
    rclavicle rhumerus
    rhumerus rradius
    rradius rwrist
    rwrist rhand rthumb
    rhand rfingers
  end

#!OML:ASF F:\twosubjects\two\Thursday\Session 1\Rory.ASF
:FULLY-SPECIFIED
:DEGREES
99
root 20.1196 18.2853 2.42236 0.162626 -2.48506 7.20878
lowerback 3.29884 1.31242 -9.4122
upperback 1.12661 1.40966 -3.35659
thorax -0.824395 0.701766 1.73363
lowerneck -14.4034 0.667521 -0.789424
upperneck 35.0126 2.23462 -2.57822
head 14.4831 0.497675 -0.552678
rclavicle 6.5102e-015 3.26007e-014
rhumerus -32.3409 30.0707 -102.666
rradius 101.3
rwrist -28.2551
rhand -27.3293 13.4116
rfingers 7.12502
rthumb -0.738121 -16.5669
lclavicle 6.5102e-015 3.26007e-014
lhumerus -40.2347 -21.1767 92.861
lradius 115.957
lwrist -2.73057
lhand -16.0406 39.1271
lfingers 7.12502
lthumb 10.161 68.8617
rfemur -27.9656 3.88586 13.8804
rtibia 28.5347
rfoot -12.201 -11.0486
rtoes -28.1829
lfemur 11.1558 1.18467 -29.8708
ltibia 13.7017
lfoot -14.3682 -6.07779
ltoes -0.774273
100
root 20.1072 18.2959 2.60521 0.26772 -2.10504 7.36828
lowerback 2.975 0.934733 -9.55759
upperback 1.01687 0.938531 -3.17757
thorax -0.714748 0.466189 2.02415
lowerneck -14.4485 0.594975 -0.88666
upperneck 35.27 2.18179 -2.64462
head 14.6131 0.446204 -0.574729
rclavicle -3.23025e-016 -6.36111e-015
rhumerus -32.677 29.713 -102.662
rradius 101.416
rwrist -27.5802
rhand -27.2166 13.7412
rfingers 7.12502
rthumb -0.629251 -16.2376
lclavicle -3.23025e-016 -6.36111e-015
lhumerus -40.2854 -21.3142 93.2827
lradius 115.537
lwrist -3.6021
lhand -16.8158 38.6602
lfingers 7.12502
lthumb 9.41307 68.43
rfemur -27.7095 3.91545 13.8593
rtibia 28.8353
rfoot -11.0946 -9.86126
rtoes -19.6107
lfemur 11.5671 1.17916 -29.8525
ltibia 13.9496
lfoot -13.6758 -6.80475
ltoes -0.79882
101
root 20.0915 18.3154 2.78386 0.523116 -1.8743 7.19277
lowerback 2.61462 0.668532 -9.32471
upperback 0.900994 0.630001 -2.97927
thorax -0.600434 0.311603 2.11638
lowerneck -14.8554 0.428335 -0.862039
upperneck 35.6402 1.99732 -2.79967
head 14.8821 0.338244 -0.678422
rclavicle -2.16178e-015 1.98785e-014
rhumerus -33.1908 28.7634 -102.702
rradius 101.994
rwrist -26.773
rhand -26.4309 13.5783
rfingers 7.12502
rthumb 0.12952 -16.4014
lclavicle -2.16178e-015 1.98785e-014
lhumerus -39.9143 -21.7187 93.4098
lradius 115.125
lwrist -3.58939
lhand -17.3148 38.729
lfingers 7.12502
lthumb 8.93157 68.52
rfemur -27.8461 4.98174 13.9244
rtibia 29.2594
rfoot -9.46745 -9.08757
rtoes -10.521
lfemur 11.89 1.14851 -29.4722
ltibia 13.9258
lfoot -12.647 -7.39019
ltoes 0.445166
102
root 20.0832 18.3343 2.97094 0.82386 -1.50461 7.46449
lowerback 2.11165 0.42923 -9.30901
upperback 0.744758 0.3635 -2.99585
thorax -0.451925 0.177698 2.10198
lowerneck -15.1322 0.164169 -1.05148
upperneck 36.1158 1.60877 -2.61408
head 15.1643 0.163029 -0.639709
rclavicle -1.20016e-014 2.50469e-014
rhumerus -33.8422 27.7993 -102.737
rradius 102.613
rwrist -26.3213
rhand -26.0412 14.1259
rfingers 7.12502
rthumb 0.505959 -15.8532
lclavicle -1.20016e-014 2.50469e-014
lhumerus -39.7875 -22.3663 93.5562
lradius 114.903
lwrist -3.63007
lhand -17.9683 38.5764
lfingers 7.12502
lthumb 8.30092 68.3933
rfemur -27.917 5.70001 13.4645
rtibia 29.5863
rfoot -7.83456 -8.64412
rtoes -0.978116
lfemur 11.8697 1.09623 -29.5782
ltibia 14.4521
lfoot -11.8298 -7.96475
ltoes -1.28116
103
root 20.0737 18.3499 3.15705 0.784236 -1.18061 7.684
lowerback 1.90168 0.188291 -9.30416
upperback 0.622705 0.0606503 -2.9478
thorax -0.429036 0.0294502 2.15703
lowerneck -14.8228 0.0510377 -1.16581
upperneck 36.2105 1.41393 -2.48597
head 15.132 0.0821511 -0.600051
rclavicle -1.02126e-014 -6.20208e-014
rhumerus -34.3784 27.343 -102.778
rradius 102.898
rwrist -26.1449
rhand -26.8788 14.2287
rfingers 7.12502
rthumb -0.303059 -15.7508
lclavicle -1.02126e-014 -6.20208e-014
lhumerus -40.2095 -22.4624 93.9789
lradius 114.97
lwrist -4.45851
lhand -18.3831 38.1828
lfingers 7.12502
lthumb 7.90063 68.0151
rfemur -27.4439 6.63278 13.0863
rtibia 29.7424
rfoot -6.53992 -9.38176
rtoes 4.9815
lfemur 11.8239 1.15929 -29.6115
ltibia 15.779
lfoot -11.4011 -8.49412
ltoes -5.88224
104
root 20.054 18.3584 3.3224 0.633719 -1.16684 6.87991
lowerback 1.96562 0.0307133 -8.41248
upperback 0.564137 -0.14135 -2.57427
thorax -0.506559 -0.0669743 2.0554
lowerneck -14.3656 -0.0393734 -1.3592
upperneck 35.9151 1.25499 -2.34505
head 14.8791 0.0128134 -0.529508
rclavicle -5.23052e-015 1.15295e-014
rhumerus -34.8323 26.9956 -102.753
rradius 103.159
rwrist -25.9198
rhand -27.6123 13.5337
rfingers 7.12502
rthumb -1.01146 -16.4437
lclavicle -5.23052e-015 1.15295e-014
lhumerus -40.583 -22.1271 94.4519
lradius 115.117
lwrist -5.57733
lhand -18.8427 37.4914
lfingers 7.12502
lthumb 7.45701 67.34
rfemur -26.7482 8.20426 13.8818
rtibia 29.8507
rfoot -5.80922 -11.1622
rtoes 6.92245
lfemur 11.607 1.29641 -28.5568
ltibia 17.5374
lfoot -10.8556 -8.7866
ltoes -9.02125
105
root 20.0322 18.3696 3.4883 0.337844 -1.23312 5.7606
lowerback 2.3069 -0.00632538 -7.16012
upperback 0.521429 -0.198462 -2.15798
thorax -0.740573 -0.0881056 1.79285
lowerneck -14.2318 -0.222205 -1.50697
upperneck 35.9785 0.971868 -2.22341
head 14.8739 -0.112319 -0.50045
rclavicle -5.1684e-015 0
rhumerus -35.4451 26.3587 -102.665
rradius 103.645
rwrist -25.6916
rhand -27.129 13.9679
rfingers 7.12502
rthumb -0.544708 -16.0111
lclavicle -5.1684e-015 0
lhumerus -40.7096 -22.42 94.8161
lradius 114.869
lwrist -6.61438
lhand -19.6381 36.9229
lfingers 7.12502
lthumb 6.68921 66.7972
rfemur -25.7561 9.03435 15.2664
rtibia 29.9401
rfoot -5.76096 -12.3347
rtoes 7.75548
lfemur 11.2383 1.62514 -27.0689
ltibia 19.8259
lfoot -10.0049 -9.42756
ltoes -9.03235
106
root 20.023 18.386 3.6653 0.0409756 -1.30885 5.27055
lowerback 2.48902 -0.0231642 -6.45442
upperback 0.515541 -0.217957 -1.92275
thorax -0.849251 -0.0958684 1.64387
lowerneck -14.282 -0.361018 -1.22572
upperneck 36.1872 0.827833 -2.6272
head 14.9879 -0.194591 -0.746259
rclavicle -5.59082e-015 -2.22639e-014
rhumerus -35.995 25.6126 -102.541
rradius 104.035
rwrist -25.3996
rhand -25.7905 15.0271
rfingers 7.12502
rthumb 0.748112 -14.9513
lclavicle -5.59082e-015 -2.22639e-014
lhumerus -40.6995 -23.0562 95.1154
lradius 114.223
lwrist -7.4857
lhand -20.1731 36.5622
lfingers 7.12502
lthumb 6.17272 66.4523
rfemur -24.7174 8.65094 16.1166
rtibia 30.0043
rfoot -6.02282 -12.0362
rtoes 7.50262
lfemur 10.6209 2.15765 -26.2474
ltibia 22.5993
lfoot -9.03347 -10.2327
ltoes -9.47876
107
root 20.0237 18.4038 3.82521 0.127816 -1.26915 5.29126
lowerback 2.40597 -0.146975 -6.20636
upperback 0.419074 -0.373237 -1.80649
thorax -0.891234 -0.170899 1.6301
lowerneck -14.3419 -0.495882 -1.1014
upperneck 36.2879 0.703664 -2.9489
head 15.0514 -0.277703 -0.926401
rclavicle -1.1778e-014 -1.78906e-015
rhumerus -36.3327 25.1795 -102.4
rradius 104.152
rwrist -25.2068
rhand -25.3402 15.2346
rfingers 7.12502
rthumb 1.18302 -14.7418
lclavicle -1.1778e-014 -1.78906e-015
lhumerus -40.6343 -23.1944 95.4431
lradius 113.703
lwrist -8.32509
lhand -20.44 35.9564
lfingers 7.12502
lthumb 5.91499 65.8538
rfemur -24.2211 7.53755 16.3246
rtibia 30.1349
rfoot -6.49667 -10.6057
rtoes 7.53168
lfemur 9.43302 2.82604 -25.955
ltibia 25.4434
lfoot -7.61247 -10.9714
ltoes -11.0624
108
root 20.0219 18.4312 3.9819 0.260139 -1.13479 5.38447
lowerback 2.32496 -0.309205 -6.07178
upperback 0.32154 -0.582987 -1.70027
thorax -0.931075 -0.272976 1.67048
lowerneck -14.4873 -0.729691 -1.46235
upperneck 36.4946 0.372421 -2.70051
head 15.1805 -0.438537 -0.818912
rclavicle 5.34234e-015 -1.17283e-014
rhumerus -36.558 25.0415 -102.252
rradius 104.274
rwrist -25.2364
rhand -25.5215 15.3686
rfingers 7.12502
rthumb 1.00788 -14.6088
lclavicle 5.34234e-015 -1.17283e-014
lhumerus -40.784 -22.577 95.9395
lradius 113.778
lwrist -9.41681
lhand -20.1049 34.9013
lfingers 7.12502
lthumb 6.2385 64.7894
rfemur -23.7805 6.25287 16.408
rtibia 30.2177
rfoot -7.1568 -8.91007
rtoes 8.66594
lfemur 8.11399 3.24587 -25.6981
ltibia 28.111
lfoot -4.85043 -11.6929
ltoes -6.32127
109
root 20.0142 18.4602 4.15813 -0.0215257 -1.28196 5.22181
lowerback 2.31489 -0.353145 -5.80912
upperback 0.423006 -0.627264 -1.49268
thorax -0.818013 -0.300393 1.73834
lowerneck -14.6739 -0.983266 -1.71464
upperneck 36.7283 0.0493697 -2.639
head 15.3366 -0.606957 -0.809467
rclavicle -1.11925e-014 -3.47873e-015
rhumerus -36.9729 24.8221 -102.116
rradius 104.553
rwrist -25.1244
rhand -25.5526 16.2815
rfingers 7.12502
rthumb 0.977883 -13.696
lclavicle -1.11925e-014 -3.47873e-015
lhumerus -40.4863 -23.1668 96.12
lradius 112.741
lwrist -9.80553
lhand -20.3194 34.0413
lfingers 7.12502
lthumb 6.03148 63.9354
rfemur -22.761 5.00438 16.8796
rtibia 30.2078
rfoot -7.64928 -7.29124
rtoes 8.63592
lfemur 7.19594 3.57921 -25.1811
ltibia 30.7903
lfoot -2.06368 -11.9925
ltoes -0.0274183
110
root 20.0064 18.5049 4.33835 -0.346617 -1.74825 4.78093
lowerback 2.30735 -0.266784 -5.20796
upperback 0.561838 -0.489113 -1.24493
thorax -0.683891 -0.238107 1.65315
lowerneck -14.7103 -1.16743 -1.76276
upperneck 36.7884 -0.171441 -2.76117
head 15.3735 -0.725915 -0.892345
rclavicle 2.77173e-015 1.20016e-014
rhumerus -37.4252 24.445 -101.949
rradius 104.761
rwrist -24.8186
rhand -25.1922 17.0761
rfingers 7.12502
rthumb 1.32593 -12.8995
lclavicle 2.77173e-015 1.20016e-014
lhumerus -40.2148 -23.404 96.4468
lradius 112.102
lwrist -10.0258
lhand -20.0272 33.3509
lfingers 7.12502
lthumb 6.31358 63.2369
rfemur -21.5761 4.01455 17.6343
rtibia 30.0371
rfoot -8.02383 -5.94355
rtoes 6.41301
lfemur 6.39698 4.36225 -24.3273
ltibia 33.3554
lfoot -0.486102 -12.1281
ltoes -1.34376
